<?xml version="1.0" standalone="no"?>
<!DOCTYPE svg PUBLIC "-//W3C//DTD SVG 20010904//EN"
 "http://www.w3.org/TR/2001/REC-SVG-20010904/DTD/svg10.dtd">
<svg version="1.0" xmlns="http://www.w3.org/2000/svg"
 width="279.000000pt" height="151.000000pt" viewBox="0 0 279.000000 151.000000"
 preserveAspectRatio="xMidYMid meet">

<g transform="translate(0.000000,151.000000) scale(0.100000,-0.100000)"
fill="#000000" stroke="none">
<path d="M597 1114 c-16 -16 -7 -44 14 -44 15 0 20 5 17 22 -3 22 -19 33 -31
22z"/>
<path d="M760 1066 c-13 -17 -6 -36 15 -36 19 0 26 27 11 39 -10 8 -17 7 -26
-3z"/>
<path d="M461 1050 c-17 -10 -7 -40 14 -40 8 0 15 9 15 19 0 24 -12 32 -29 21z"/>
<path d="M877 956 c-8 -19 15 -37 32 -26 17 10 7 40 -13 40 -7 0 -16 -6 -19
-14z"/>
<path d="M351 930 c-17 -10 -7 -40 14 -40 8 0 15 9 15 19 0 24 -12 32 -29 21z"/>
<path d="M1157 875 c-67 -35 -91 -100 -85 -232 6 -147 53 -208 158 -208 42 0
66 7 103 28 l47 28 0 94 0 95 -80 0 -80 0 0 -35 c0 -34 1 -35 41 -35 l40 0 -3
-42 c-2 -36 -7 -44 -29 -52 -72 -25 -111 25 -112 145 -1 92 14 133 55 150 29
12 33 11 53 -14 13 -14 24 -30 26 -36 5 -14 79 5 79 20 0 20 -30 68 -56 88
-32 25 -114 29 -157 6z"/>
<path d="M1572 870 c-54 -33 -77 -96 -77 -210 1 -82 4 -101 25 -139 33 -58 68
-83 127 -88 63 -6 110 20 143 78 22 39 25 55 25 149 0 121 -17 170 -74 207
-45 30 -122 31 -169 3z m123 -74 c29 -30 39 -78 33 -167 -6 -83 -26 -119 -68
-119 -15 0 -35 7 -44 15 -50 50 -45 244 7 280 30 21 44 19 72 -9z"/>
<path d="M1967 883 c-4 -3 -7 -105 -7 -225 l0 -218 140 0 140 0 0 35 0 35 -95
0 -95 0 0 190 0 190 -38 0 c-21 0 -42 -3 -45 -7z"/>
<path d="M2370 666 l0 -226 94 0 c110 0 145 17 186 90 21 39 25 58 25 135 0
77 -4 96 -25 134 -34 60 -80 81 -191 88 l-89 6 0 -227z m170 129 c33 -17 50
-63 50 -138 0 -87 -42 -147 -102 -147 l-28 0 0 150 0 150 25 0 c15 0 39 -7 55
-15z"/>
<path d="M292 758 c2 -13 10 -23 18 -23 8 0 16 10 18 23 3 17 -2 22 -18 22
-16 0 -21 -5 -18 -22z"/>
<path d="M327 603 c-14 -13 -6 -33 13 -33 13 0 20 7 20 20 0 19 -20 27 -33 13z"/>
<path d="M857 504 c-16 -16 -7 -44 14 -44 15 0 20 5 17 22 -3 22 -19 33 -31
22z"/>
<path d="M424 466 c-7 -19 3 -36 22 -36 10 0 14 8 12 22 -4 26 -26 36 -34 14z"/>
<path d="M720 415 c-14 -16 -5 -35 16 -35 15 0 20 35 5 44 -5 3 -14 -1 -21 -9z"/>
<path d="M560 389 c0 -25 33 -22 38 4 2 12 -3 17 -17 17 -15 0 -21 -6 -21 -21z"/>
</g>
</svg>
